<?xml version="1.0" encoding="utf-8"?>
<!-- Generator: Adobe Illustrator 22.0.1, SVG Export Plug-In . SVG Version: 6.00 Build 0)  -->
<svg version="1.1" id="Warstwa_1" xmlns="http://www.w3.org/2000/svg" xmlns:xlink="http://www.w3.org/1999/xlink" x="0px" y="0px"
	 viewBox="0 0 801.9 588.2" style="enable-background:new 0 0 801.9 588.2;" xml:space="preserve">
<style type="text/css">
	.st0{fill:#757575;}
	.st1{fill:#EDE2CE;}
	.st2{opacity:0.12;}
	.st3{fill:#A38C6C;}
	.st4{opacity:0.65;}
	.st5{fill:#FFF3DE;}
	.st6{fill:#E3D5B7;}
	.st7{fill:#D4BD98;}
	.st8{opacity:0.61;}
	.st9{fill:#675737;}
	.st10{opacity:0.35;}
	.st11{opacity:0.12;fill:#A38C6C;enable-background:new    ;}
</style>
<title>background</title>
<g id="Warstwa_2_1_">
	<g id="_1">
		<rect y="528.8" class="st0" width="801.9" height="59.5"/>
		<rect y="10.9" class="st1" width="801.9" height="537.3"/>
		<g class="st2">
			<rect x="0.9" y="437.4" class="st3" width="801" height="78.1"/>
		</g>
		<g class="st4">
			<rect y="521.7" class="st3" width="801.9" height="11"/>
		</g>
		<rect y="517.6" class="st5" width="801.9" height="11.2"/>
		<g class="st4">
			<rect class="st3" width="801.9" height="37.5"/>
		</g>
		<rect x="0.9" y="30.2" class="st6" width="801" height="4.2"/>
		<rect x="0.9" y="24.8" class="st6" width="801" height="2.5"/>
		<rect x="8.1" y="10.9" class="st7" width="5.1" height="10.9"/>
		<rect x="16.4" y="10.9" class="st7" width="5.1" height="10.9"/>
		<rect x="24.8" y="10.9" class="st7" width="5.1" height="10.9"/>
		<rect x="33.1" y="10.9" class="st7" width="5.1" height="10.9"/>
		<rect x="41.4" y="10.9" class="st7" width="5.1" height="10.9"/>
		<rect x="49.7" y="10.9" class="st7" width="5.1" height="10.9"/>
		<rect x="58.1" y="10.9" class="st7" width="5.1" height="10.9"/>
		<rect x="66.4" y="10.9" class="st7" width="5.1" height="10.9"/>
		<rect x="74.7" y="10.9" class="st7" width="5.1" height="10.9"/>
		<rect x="83.1" y="10.9" class="st7" width="5.1" height="10.9"/>
		<rect x="91.4" y="10.9" class="st7" width="5.1" height="10.9"/>
		<rect x="99.7" y="10.9" class="st7" width="5.1" height="10.9"/>
		<rect x="108" y="10.9" class="st7" width="5.1" height="10.9"/>
		<rect x="116.4" y="10.9" class="st7" width="5.1" height="10.9"/>
		<rect x="124.7" y="10.9" class="st7" width="5.1" height="10.9"/>
		<rect x="133" y="10.9" class="st7" width="5.1" height="10.9"/>
		<rect x="141.3" y="10.9" class="st7" width="5.1" height="10.9"/>
		<rect x="149.7" y="10.9" class="st7" width="5.1" height="10.9"/>
		<rect x="158" y="10.9" class="st7" width="5.1" height="10.9"/>
		<rect x="166.3" y="10.9" class="st7" width="5.1" height="10.9"/>
		<rect x="174.6" y="10.9" class="st7" width="5.1" height="10.9"/>
		<rect x="183" y="10.9" class="st7" width="5.1" height="10.9"/>
		<rect x="191.3" y="10.9" class="st7" width="5.1" height="10.9"/>
		<rect x="199.6" y="10.9" class="st7" width="5.1" height="10.9"/>
		<rect x="207.9" y="10.9" class="st7" width="5.1" height="10.9"/>
		<rect x="216.3" y="10.9" class="st7" width="5.1" height="10.9"/>
		<rect x="224.6" y="10.9" class="st7" width="5.1" height="10.9"/>
		<rect x="232.9" y="10.9" class="st7" width="5.1" height="10.9"/>
		<rect x="241.3" y="10.9" class="st7" width="5.1" height="10.9"/>
		<rect x="249.6" y="10.9" class="st7" width="5.1" height="10.9"/>
		<rect x="257.9" y="10.9" class="st7" width="5.1" height="10.9"/>
		<rect x="266.2" y="10.9" class="st7" width="5.1" height="10.9"/>
		<rect x="274.6" y="10.9" class="st7" width="5.1" height="10.9"/>
		<rect x="282.9" y="10.9" class="st7" width="5.1" height="10.9"/>
		<rect x="291.2" y="10.9" class="st7" width="5.1" height="10.9"/>
		<rect x="299.5" y="10.9" class="st7" width="5.1" height="10.9"/>
		<rect x="307.9" y="10.9" class="st7" width="5.1" height="10.9"/>
		<rect x="316.2" y="10.9" class="st7" width="5.1" height="10.9"/>
		<rect x="324.5" y="10.9" class="st7" width="5.1" height="10.9"/>
		<rect x="332.9" y="10.9" class="st7" width="5.1" height="10.9"/>
		<rect x="341.2" y="10.9" class="st7" width="5.1" height="10.9"/>
		<rect x="349.5" y="10.9" class="st7" width="5.1" height="10.9"/>
		<rect x="357.8" y="10.9" class="st7" width="5.1" height="10.9"/>
		<rect x="366.2" y="10.9" class="st7" width="5.1" height="10.9"/>
		<rect x="374.5" y="10.9" class="st7" width="5.1" height="10.9"/>
		<rect x="382.8" y="10.9" class="st7" width="5.1" height="10.9"/>
		<rect x="391.1" y="10.9" class="st7" width="5.1" height="10.9"/>
		<rect x="399.5" y="10.9" class="st7" width="5.1" height="10.9"/>
		<rect x="407.8" y="10.9" class="st7" width="5.1" height="10.9"/>
		<rect x="416.1" y="10.9" class="st7" width="5.1" height="10.9"/>
		<rect x="424.5" y="10.9" class="st7" width="5.1" height="10.9"/>
		<rect x="432.8" y="10.9" class="st7" width="5.1" height="10.9"/>
		<rect x="441.1" y="10.9" class="st7" width="5.1" height="10.9"/>
		<rect x="449.4" y="10.9" class="st7" width="5.1" height="10.9"/>
		<rect x="457.8" y="10.9" class="st7" width="5.1" height="10.9"/>
		<rect x="466.1" y="10.9" class="st7" width="5.1" height="10.9"/>
		<rect x="474.4" y="10.9" class="st7" width="5.1" height="10.9"/>
		<rect x="482.8" y="10.9" class="st7" width="5.1" height="10.9"/>
		<rect x="491.1" y="10.9" class="st7" width="5.1" height="10.9"/>
		<rect x="499.4" y="10.9" class="st7" width="5.1" height="10.9"/>
		<rect x="507.7" y="10.9" class="st7" width="5.1" height="10.9"/>
		<rect x="516" y="10.9" class="st7" width="5.1" height="10.9"/>
		<rect x="524.4" y="10.9" class="st7" width="5.1" height="10.9"/>
		<rect x="532.7" y="10.9" class="st7" width="5.1" height="10.9"/>
		<rect x="541" y="10.9" class="st7" width="5.1" height="10.9"/>
		<rect x="549.4" y="10.9" class="st7" width="5.1" height="10.9"/>
		<rect x="557.7" y="10.9" class="st7" width="5.1" height="10.9"/>
		<rect x="566" y="10.9" class="st7" width="5.1" height="10.9"/>
		<rect x="574.3" y="10.9" class="st7" width="5.1" height="10.9"/>
		<rect x="582.7" y="10.9" class="st7" width="5.1" height="10.9"/>
		<rect x="591" y="10.9" class="st7" width="5.1" height="10.9"/>
		<rect x="599.3" y="10.9" class="st7" width="5.1" height="10.9"/>
		<rect x="607.7" y="10.9" class="st7" width="5.1" height="10.9"/>
		<rect x="616" y="10.9" class="st7" width="5.1" height="10.9"/>
		<rect x="624.3" y="10.9" class="st7" width="5.1" height="10.9"/>
		<rect x="632.6" y="10.9" class="st7" width="5.1" height="10.9"/>
		<rect x="641" y="10.9" class="st7" width="5.1" height="10.9"/>
		<rect x="649.3" y="10.9" class="st7" width="5.1" height="10.9"/>
		<rect x="657.6" y="10.9" class="st7" width="5.1" height="10.9"/>
		<rect x="665.9" y="10.9" class="st7" width="5.1" height="10.9"/>
		<rect x="674.3" y="10.9" class="st7" width="5.1" height="10.9"/>
		<rect x="682.6" y="10.9" class="st7" width="5.1" height="10.9"/>
		<rect x="690.9" y="10.9" class="st7" width="5.1" height="10.9"/>
		<rect x="699.2" y="10.9" class="st7" width="5.1" height="10.9"/>
		<rect x="707.6" y="10.9" class="st7" width="5.1" height="10.9"/>
		<rect x="715.9" y="10.9" class="st7" width="5.1" height="10.9"/>
		<rect x="724.2" y="10.9" class="st7" width="5.1" height="10.9"/>
		<rect x="732.6" y="10.9" class="st7" width="5.1" height="10.9"/>
		<rect x="740.9" y="10.9" class="st7" width="5.1" height="10.9"/>
		<rect x="749.2" y="10.9" class="st7" width="5.1" height="10.9"/>
		<rect x="757.5" y="10.9" class="st7" width="5.1" height="10.9"/>
		<rect x="765.9" y="10.9" class="st7" width="5.1" height="10.9"/>
		<rect x="774.2" y="10.9" class="st7" width="5.1" height="10.9"/>
		<rect x="782.5" y="10.9" class="st7" width="5.1" height="10.9"/>
		<rect x="790.8" y="10.9" class="st7" width="5.1" height="10.9"/>
		<g class="st8">
			<path class="st9" d="M0,1l125.3-0.6L400.9,0l275.6,0.4L801.9,1v1.1L676.6,2.7L400.9,3.1L125.3,2.7L0,2.1V1z"/>
		</g>
		<g class="st10">
			<path class="st9" d="M0,541.5l125.3-0.4l275.7-0.3l275.6,0.3l125.3,0.4v0.9l-125.3,0.4l-275.6,0.3l-275.7-0.3L0,542.3V541.5z"/>
		</g>
		<rect y="45.3" class="st11" width="796" height="108"/>
	</g>
</g>
</svg>
