<?xml version="1.0" encoding="UTF-8"?>
<!DOCTYPE svg PUBLIC "-//W3C//DTD SVG 1.1//EN" "http://www.w3.org/Graphics/SVG/1.1/DTD/svg11.dtd">
<!-- Creator: CorelDRAW X7 -->
<svg xmlns="http://www.w3.org/2000/svg" xml:space="preserve" width="7748px" height="1476px" version="1.1" style="shape-rendering:geometricPrecision; text-rendering:geometricPrecision; image-rendering:optimizeQuality; fill-rule:evenodd; clip-rule:evenodd"
viewBox="0 0 7748 1476"
 xmlns:xlink="http://www.w3.org/1999/xlink">
 <defs>
  <style type="text/css">
   <![CDATA[
    .fil3 {fill:#D4BD98}
    .fil2 {fill:#E3D5B7}
    .fil0 {fill:#EDE2CE}
    .fil5 {fill:#A38C6C;fill-opacity:0.121569}
    .fil4 {fill:#675737;fill-opacity:0.611765}
    .fil1 {fill:#A38C6C;fill-opacity:0.650980}
   ]]>
  </style>
 </defs>
 <g id="Warstwa_x0020_1">
  <metadata id="CorelCorpID_0Corel-Layer"/>
  <g id="_880684528">
   <rect class="fil0" y="331" width="24209" height="4281"/>
   <polygon class="fil1" points="0,1128 24212,1128 24212,0 0,0 "/>
   <rect class="fil2" x="31" y="903" width="24183" height="126"/>
   <rect class="fil2" x="31" y="747" width="24183.1" height="75.256"/>
   <rect class="fil3" x="244" y="331" width="154" height="328"/>
   <rect class="fil3" x="500" y="331" width="154" height="328"/>
   <rect class="fil3" x="753" y="331" width="154" height="328"/>
   <rect class="fil3" x="1006" y="331" width="154" height="328"/>
   <rect class="fil3" x="1250" y="331" width="154" height="328"/>
   <rect class="fil3" x="1503" y="331" width="154" height="328"/>
   <rect class="fil3" x="1759" y="331" width="154" height="328"/>
   <rect class="fil3" x="2012" y="331" width="154" height="328"/>
   <rect class="fil3" x="2256" y="331" width="154" height="328"/>
   <rect class="fil3" x="2509" y="331" width="154" height="328"/>
   <rect class="fil3" x="2762" y="331" width="154" height="328"/>
   <rect class="fil3" x="3019" y="331" width="154" height="328"/>
   <rect class="fil3" x="3262" y="331" width="154" height="328"/>
   <rect class="fil3" x="3516" y="331" width="154" height="328"/>
   <rect class="fil3" x="3769" y="331" width="154" height="328"/>
   <rect class="fil3" x="4022" y="331" width="154" height="328"/>
   <rect class="fil3" x="4266" y="331" width="154" height="328"/>
   <rect class="fil3" x="4522" y="331" width="154" height="328"/>
   <rect class="fil3" x="4775" y="331" width="154" height="328"/>
   <rect class="fil3" x="5028" y="331" width="154" height="328"/>
   <rect class="fil3" x="5272" y="331" width="154" height="328"/>
   <rect class="fil3" x="5525" y="331" width="154" height="328"/>
   <rect class="fil3" x="5781" y="331" width="154" height="328"/>
   <rect class="fil3" x="6034" y="331" width="154" height="328"/>
   <rect class="fil3" x="6278" y="331" width="154" height="328"/>
   <rect class="fil3" x="6531" y="331" width="154" height="328"/>
   <rect class="fil3" x="6784" y="331" width="154" height="328"/>
   <rect class="fil3" x="7041" y="331" width="154" height="328"/>
   <rect class="fil3" x="7294" y="331" width="154" height="328"/>
   <rect class="fil3" x="7537" y="331" width="154" height="328"/>
   <rect class="fil3" x="7791" y="331" width="154" height="328"/>
   <rect class="fil3" x="8044" y="331" width="154" height="328"/>
   <rect class="fil3" x="8300" y="331" width="154" height="328"/>
   <rect class="fil3" x="8544" y="331" width="154" height="328"/>
   <rect class="fil3" x="8797" y="331" width="154" height="328"/>
   <rect class="fil3" x="9050" y="331" width="154" height="328"/>
   <rect class="fil3" x="9303" y="331" width="154" height="328"/>
   <rect class="fil3" x="9547" y="331" width="154" height="328"/>
   <rect class="fil3" x="9803" y="331" width="154" height="328"/>
   <rect class="fil3" x="10056" y="331" width="154" height="328"/>
   <rect class="fil3" x="10309" y="331" width="154" height="328"/>
   <rect class="fil3" x="10553" y="331" width="154" height="328"/>
   <rect class="fil3" x="10806" y="331" width="154" height="328"/>
   <rect class="fil3" x="11062" y="331" width="154" height="328"/>
   <rect class="fil3" x="11316" y="331" width="154" height="328"/>
   <rect class="fil3" x="11559" y="331" width="154" height="328"/>
   <rect class="fil3" x="11812" y="331" width="154" height="328"/>
   <rect class="fil3" x="12066" y="331" width="154" height="328"/>
   <rect class="fil3" x="12322" y="331" width="154" height="328"/>
   <rect class="fil3" x="12566" y="331" width="154" height="328"/>
   <rect class="fil3" x="12819" y="331" width="154" height="328"/>
   <rect class="fil3" x="13072" y="331" width="154" height="328"/>
   <rect class="fil3" x="13325" y="331" width="154" height="328"/>
   <rect class="fil3" x="13572" y="331" width="154" height="328"/>
   <rect class="fil3" x="13825" y="331" width="154" height="328"/>
   <rect class="fil3" x="14078" y="331" width="154" height="328"/>
   <rect class="fil3" x="14331" y="331" width="154" height="328"/>
   <rect class="fil3" x="14584" y="331" width="154" height="328"/>
   <rect class="fil3" x="14828" y="331" width="154" height="328"/>
   <rect class="fil3" x="15084" y="331" width="154" height="328"/>
   <rect class="fil3" x="15337" y="331" width="154" height="328"/>
   <rect class="fil3" x="15581" y="331" width="154" height="328"/>
   <rect class="fil3" x="15834" y="331" width="154" height="328"/>
   <rect class="fil3" x="16087" y="331" width="154" height="328"/>
   <rect class="fil3" x="16344" y="331" width="154" height="328"/>
   <rect class="fil3" x="16597" y="331" width="154" height="328"/>
   <rect class="fil3" x="16841" y="331" width="154" height="328"/>
   <rect class="fil3" x="17094" y="331" width="154" height="328"/>
   <rect class="fil3" x="17347" y="331" width="154" height="328"/>
   <rect class="fil3" x="17594" y="331" width="154" height="328"/>
   <rect class="fil3" x="17847" y="331" width="154" height="328"/>
   <rect class="fil3" x="18100" y="331" width="154" height="328"/>
   <rect class="fil3" x="18353" y="331" width="154" height="328"/>
   <rect class="fil3" x="18597" y="331" width="154" height="328"/>
   <rect class="fil3" x="18853" y="331" width="154" height="328"/>
   <rect class="fil3" x="19106" y="331" width="154" height="328"/>
   <rect class="fil3" x="19359" y="331" width="154" height="328"/>
   <rect class="fil3" x="19603" y="331" width="154" height="328"/>
   <rect class="fil3" x="19856" y="331" width="154" height="328"/>
   <rect class="fil3" x="20112" y="331" width="154" height="328"/>
   <rect class="fil3" x="20366" y="331" width="154" height="328"/>
   <rect class="fil3" x="20609" y="331" width="154" height="328"/>
   <rect class="fil3" x="20862" y="331" width="154" height="328"/>
   <rect class="fil3" x="21116" y="331" width="154" height="328"/>
   <rect class="fil3" x="21372" y="331" width="154" height="328"/>
   <rect class="fil3" x="21616" y="331" width="154" height="328"/>
   <rect class="fil3" x="21869" y="331" width="154" height="328"/>
   <rect class="fil3" x="22122" y="331" width="154" height="328"/>
   <rect class="fil3" x="22375" y="331" width="154" height="328"/>
   <rect class="fil3" x="22619" y="331" width="154" height="328"/>
   <rect class="fil3" x="22875" y="331" width="154" height="328"/>
   <rect class="fil3" x="23128" y="331" width="154" height="328"/>
   <rect class="fil3" x="23381" y="331" width="154" height="328"/>
   <rect class="fil3" x="23625" y="331" width="154" height="328"/>
   <rect class="fil3" x="23878" y="331" width="154" height="328"/>
   <polygon class="fil4" points="0,28 3787,9 12106,0 20434,9 24212,28 24212,66 20434,78 12106,97 3787,78 0,66 "/>
   <polygon class="fil5" points="0,4612 24034,4612 24034,1362 0,1362 "/>
  </g>
 </g>
</svg>
