<svg xmlns="http://www.w3.org/2000/svg" viewBox="0 0 127.56 40.12"><defs><style>.cls-1{fill:#39373d;}</style></defs><title>kratka</title><g id="Warstwa_2" data-name="Warstwa 2"><g id="Warstwa_3" data-name="Warstwa 3"><path class="cls-1" d="M127.56,40.12H0V0H127.56ZM1.87,38.25H125.69V1.87H1.87Z"/><path class="cls-1" d="M8.58,4.75a2.68,2.68,0,0,1-.1.88,3.56,3.56,0,0,1-4.7,2.46A3.59,3.59,0,0,1,1.46,4.7a4,4,0,0,1,.68-2A3.41,3.41,0,0,1,3.78,1.41a3.57,3.57,0,0,1,3.38.49A3.39,3.39,0,0,1,8.58,4.75ZM8,4.74A2.39,2.39,0,0,0,7.87,4,2.53,2.53,0,0,0,6.72,2.56a2.49,2.49,0,0,0-2.43,0,2.76,2.76,0,0,0-.94.92A2.33,2.33,0,0,0,3,4.78,2.57,2.57,0,0,0,3.35,6a2.85,2.85,0,0,0,.95.91,2.47,2.47,0,0,0,1.25.31,2.55,2.55,0,0,0,1.17-.31A2.47,2.47,0,0,0,7.87,5.46,2.69,2.69,0,0,0,8,4.74Z"/><path class="cls-1" d="M73.31,1.77A4.23,4.23,0,0,1,73.21,3a5.2,5.2,0,0,1-1.72,2.63c-1.95,1.77-5.37,2.78-8.72,2.69A16.34,16.34,0,0,1,60.28,8a14.92,14.92,0,0,1-2.36-.66,9.16,9.16,0,0,1-3.65-2.4A4.55,4.55,0,0,1,53.07,2a2.76,2.76,0,0,1,.13-.87l.06-.28.58.07s0,.1,0,.29a2.64,2.64,0,0,0,0,.74,3.83,3.83,0,0,0,1.25,2.21A8.73,8.73,0,0,0,58.4,6a13.13,13.13,0,0,0,2.14.53,15.22,15.22,0,0,0,2.27.19,13.42,13.42,0,0,0,8-2,4.82,4.82,0,0,0,1.7-2,4.66,4.66,0,0,0,.26-1Z"/><path class="cls-1" d="M72.73,38.43a4.66,4.66,0,0,0-.26-1,4.76,4.76,0,0,0-1.7-2,13.42,13.42,0,0,0-8-2,15.22,15.22,0,0,0-2.27.19,13.13,13.13,0,0,0-2.14.53A8.72,8.72,0,0,0,55.09,36a3.88,3.88,0,0,0-1.25,2.21,2.71,2.71,0,0,0,0,.75c0,.19,0,.29,0,.29l-.58.07L53.2,39a2.79,2.79,0,0,1-.13-.88,4.53,4.53,0,0,1,1.2-2.93,9.29,9.29,0,0,1,3.65-2.41,16,16,0,0,1,2.36-.65,16.34,16.34,0,0,1,2.49-.27c3.35-.09,6.77.91,8.72,2.68a5.26,5.26,0,0,1,1.72,2.64,4.17,4.17,0,0,1,.1,1.17Z"/><path class="cls-1" d="M126.26,5a2.8,2.8,0,0,1-.09.88,3.6,3.6,0,0,1-1.32,2,3.5,3.5,0,0,1-1.5.67A3.56,3.56,0,0,1,119.15,5a3.73,3.73,0,0,1,.68-2.07,3.41,3.41,0,0,1,1.64-1.26,3.57,3.57,0,0,1,3.38.49A3.4,3.4,0,0,1,126.26,5Zm-.58,0a2.54,2.54,0,0,0-.12-.72,2.57,2.57,0,0,0-1.15-1.46,2.5,2.5,0,0,0-2.43,0,2.79,2.79,0,0,0-1,.92A2.24,2.24,0,0,0,120.7,5,2.47,2.47,0,0,0,122,7.18a2.51,2.51,0,0,0,2.42,0,2.49,2.49,0,0,0,1.16-1.46A2.42,2.42,0,0,0,125.68,5Z"/><path class="cls-1" d="M8.45,35.13a2.68,2.68,0,0,1-.1.88,3.56,3.56,0,0,1-4.7,2.46,3.59,3.59,0,0,1-2.32-3.39,4,4,0,0,1,.68-2,3.41,3.41,0,0,1,1.64-1.26A3.57,3.57,0,0,1,7,32.28,3.4,3.4,0,0,1,8.45,35.13Zm-.58,0a2.89,2.89,0,0,0-.13-.72,2.53,2.53,0,0,0-1.15-1.46,2.49,2.49,0,0,0-2.43,0,2.76,2.76,0,0,0-.94.92,2.33,2.33,0,0,0-.34,1.31,2.57,2.57,0,0,0,.34,1.23,2.85,2.85,0,0,0,.95.91,2.37,2.37,0,0,0,1.25.31,2.55,2.55,0,0,0,1.17-.31,2.48,2.48,0,0,0,1.15-1.45A2.79,2.79,0,0,0,7.87,35.12Z"/><path class="cls-1" d="M126.13,35a2.8,2.8,0,0,1-.09.88,3.6,3.6,0,0,1-1.32,2,3.5,3.5,0,0,1-1.5.67A3.56,3.56,0,0,1,119,35a3.79,3.79,0,0,1,.68-2,3.41,3.41,0,0,1,1.64-1.26,3.57,3.57,0,0,1,3.38.49A3.4,3.4,0,0,1,126.13,35Zm-.58,0a2.54,2.54,0,0,0-.12-.72,2.57,2.57,0,0,0-1.15-1.46,2.5,2.5,0,0,0-2.43,0,2.79,2.79,0,0,0-.95.92,2.25,2.25,0,0,0-.33,1.31,2.46,2.46,0,0,0,.34,1.23,2.82,2.82,0,0,0,.94.91,2.42,2.42,0,0,0,1.25.31,2.45,2.45,0,0,0,2.33-1.77A2.42,2.42,0,0,0,125.55,35Z"/><path class="cls-1" d="M.68,8.44l19.6-.26L63.39,8l43.12.22,19.59.26V9l-19.59.27-43.12.22L20.28,9.29.68,9Z"/><path class="cls-1" d="M.68,31.06l19.6-.26,43.11-.22,43.12.22,19.59.26v.59l-19.59.26-43.12.22-43.11-.22L.68,31.65Z"/><path class="cls-1" d="M9.32.74s.16,2.42.27,6,.19,8.45.21,13.28-.08,9.66-.21,13.29-.27,6-.27,6H8.73s-.15-2.41-.27-6-.18-8.46-.21-13.29.07-9.66.21-13.28.27-6,.27-6Z"/><path class="cls-1" d="M119.11.74s.16,2.42.28,6,.18,8.45.2,13.28-.08,9.66-.21,13.29-.27,6-.27,6h-.58s-.16-2.41-.28-6-.18-8.46-.21-13.29.07-9.66.21-13.28.28-6,.28-6Z"/><path class="cls-1" d="M9.91,9.33l0-.29h.29a3.58,3.58,0,0,1,.88.09A4.17,4.17,0,0,1,13.64,11a4.45,4.45,0,0,1,.66,2.08c0,.72.07,1.41.07,2.16,0,1.48,0,3.06.06,4.64s0,3.16-.06,4.64c0,.75,0,1.42-.08,2.16a4.52,4.52,0,0,1-.66,2.07,4.15,4.15,0,0,1-2.53,1.87,3.28,3.28,0,0,1-1.19.09h0a.29.29,0,0,1-.24-.34.31.31,0,0,1,.27-.24,3.11,3.11,0,0,0,1-.24,3.44,3.44,0,0,0,1.78-1.68A3.32,3.32,0,0,0,13,26.61c0-.67,0-1.37-.07-2.1,0-1.48,0-3.06-.06-4.64s0-3.16.06-4.64c0-.73,0-1.44.06-2.11a3.36,3.36,0,0,0-.35-1.57,3.58,3.58,0,0,0-1.78-1.69,4.63,4.63,0,0,0-.69-.2l-.21,0H9.9Z"/><path class="cls-1" d="M23.64,9.33v.29h-.07l-.21,0a4.63,4.63,0,0,0-.69.2,3.53,3.53,0,0,0-1.77,1.69,3.25,3.25,0,0,0-.36,1.57c0,.67,0,1.38.06,2.11,0,1.48,0,3.06.06,4.64s0,3.16-.06,4.64c0,.73-.05,1.43-.07,2.1a3.32,3.32,0,0,0,.36,1.58,3.44,3.44,0,0,0,1.78,1.68,3.11,3.11,0,0,0,1,.24.29.29,0,0,1,.27.31.27.27,0,0,1-.24.27h0a3.27,3.27,0,0,1-1.19-.09,4.15,4.15,0,0,1-2.53-1.87,4.52,4.52,0,0,1-.66-2.07c0-.74-.07-1.41-.08-2.16,0-1.48,0-3.06-.06-4.64s0-3.16.06-4.64c0-.75,0-1.44.07-2.16A4.56,4.56,0,0,1,19.91,11a4.19,4.19,0,0,1,2.54-1.87A3.66,3.66,0,0,1,23.34,9h.28Z"/><path class="cls-1" d="M14.11,20.38a2.4,2.4,0,0,1,.08-.73,3.08,3.08,0,0,1,1-1.69,2.91,2.91,0,0,1,2.89-.46,3.13,3.13,0,0,1,1.93,2.89,3.45,3.45,0,0,1-.56,1.76,2.76,2.76,0,0,1-1.38,1.11,2.87,2.87,0,0,1-2.87-.45A3,3,0,0,1,14.11,20.38Zm.59,0a1.87,1.87,0,0,0,.1.57,2.05,2.05,0,0,0,.9,1.19,1.82,1.82,0,0,0,1.87,0,2.13,2.13,0,0,0,.69-.74,1.9,1.9,0,0,0,.24-1,2,2,0,0,0-.93-1.73,1.81,1.81,0,0,0-.95-.28,1.91,1.91,0,0,0-.92.24,2,2,0,0,0-.9,1.18A2.35,2.35,0,0,0,14.7,20.4Z"/><path class="cls-1" d="M23.51,9.33l0-.29h.28a3.66,3.66,0,0,1,.89.09A4.19,4.19,0,0,1,27.24,11a4.56,4.56,0,0,1,.66,2.08c.05.72.07,1.41.07,2.16,0,1.48,0,3.06.06,4.64S28,23,28,24.51c0,.75,0,1.42-.08,2.16a4.52,4.52,0,0,1-.66,2.07,4.15,4.15,0,0,1-2.53,1.87,3.27,3.27,0,0,1-1.19.09h0a.29.29,0,0,1-.23-.34.3.3,0,0,1,.27-.24,3.11,3.11,0,0,0,1-.24,3.5,3.5,0,0,0,2.14-3.26c0-.67-.05-1.37-.07-2.1,0-1.48,0-3.06-.06-4.64s0-3.16.06-4.64c0-.73,0-1.44.06-2.11a3.25,3.25,0,0,0-.36-1.57,3.53,3.53,0,0,0-1.77-1.69,5,5,0,0,0-.69-.2l-.21,0H23.5Z"/><path class="cls-1" d="M37.23,9.33l0,.29h-.07l-.21,0a4.63,4.63,0,0,0-.69.2,3.55,3.55,0,0,0-1.78,1.69,3.36,3.36,0,0,0-.35,1.57c0,.67,0,1.38.06,2.11,0,1.48,0,3.06.06,4.64s0,3.16-.07,4.64q0,1.09-.06,2.1a3.32,3.32,0,0,0,.36,1.58,3.44,3.44,0,0,0,1.78,1.68,3.09,3.09,0,0,0,.95.24.3.3,0,0,1,.28.31.29.29,0,0,1-.24.27h0a3.22,3.22,0,0,1-1.18-.09,4.12,4.12,0,0,1-2.53-1.87,4.52,4.52,0,0,1-.66-2.07c0-.74-.08-1.41-.08-2.16,0-1.48,0-3.06-.07-4.64s0-3.16.06-4.64c0-.75,0-1.44.08-2.16A4.45,4.45,0,0,1,33.51,11a4.14,4.14,0,0,1,2.54-1.87A3.58,3.58,0,0,1,36.93,9h.29Z"/><path class="cls-1" d="M27.71,20.38a2.54,2.54,0,0,1,.07-.73,3.1,3.1,0,0,1,1-1.69,2.9,2.9,0,0,1,1.26-.6,2.85,2.85,0,0,1,1.62.14,2.79,2.79,0,0,1,1.38,1.12,3.23,3.23,0,0,1,.55,1.81,3.39,3.39,0,0,1-.55,1.72,2.78,2.78,0,0,1-1.39,1.11,2.88,2.88,0,0,1-2.87-.45A3,3,0,0,1,27.71,20.38Zm.58,0a2.17,2.17,0,0,0,.11.57,2,2,0,0,0,.89,1.19,1.84,1.84,0,0,0,1.88,0,2.22,2.22,0,0,0,.69-.74,1.91,1.91,0,0,0,.23-1,2.06,2.06,0,0,0-.24-1,2.29,2.29,0,0,0-.69-.73,1.75,1.75,0,0,0-.94-.28,1.91,1.91,0,0,0-.92.24,2,2,0,0,0-.9,1.18A2.16,2.16,0,0,0,28.29,20.4Z"/><path class="cls-1" d="M37.11,9.33l0-.29h.28a3.58,3.58,0,0,1,.88.09A4.14,4.14,0,0,1,40.83,11a4.57,4.57,0,0,1,.67,2.08c0,.72.06,1.41.07,2.16,0,1.48,0,3.06.06,4.64s0,3.16-.07,4.64c0,.75,0,1.42-.07,2.16a4.64,4.64,0,0,1-.66,2.07,4.17,4.17,0,0,1-2.54,1.87,3.22,3.22,0,0,1-1.18.09h0a.29.29,0,0,1-.23-.34.3.3,0,0,1,.27-.24,3.09,3.09,0,0,0,1-.24,3.42,3.42,0,0,0,1.79-1.68,3.32,3.32,0,0,0,.35-1.58q0-1-.06-2.1c0-1.48,0-3.06-.07-4.64s0-3.16.06-4.64c0-.73,0-1.44.06-2.11a3.36,3.36,0,0,0-.35-1.57,3.51,3.51,0,0,0-1.78-1.69,4.93,4.93,0,0,0-.68-.2l-.21,0h-.08Z"/><path class="cls-1" d="M50.83,9.33l0,.29h-.08l-.21,0a4.93,4.93,0,0,0-.68.2,3.51,3.51,0,0,0-1.78,1.69,3.36,3.36,0,0,0-.35,1.57c0,.67,0,1.38.06,2.11,0,1.48,0,3.06.06,4.64s0,3.16-.07,4.64q0,1.09-.06,2.1a3.32,3.32,0,0,0,.35,1.58,3.42,3.42,0,0,0,1.79,1.68,3.09,3.09,0,0,0,.95.24.3.3,0,0,1,.28.31.29.29,0,0,1-.24.27h0a3.22,3.22,0,0,1-1.18-.09,4.17,4.17,0,0,1-2.54-1.87,4.64,4.64,0,0,1-.66-2.07c0-.74-.07-1.41-.07-2.16,0-1.48-.05-3.06-.07-4.64s0-3.16.06-4.64c0-.75,0-1.44.07-2.16A4.57,4.57,0,0,1,47.11,11a4.14,4.14,0,0,1,2.54-1.87A3.58,3.58,0,0,1,50.53,9h.29Z"/><path class="cls-1" d="M41.31,20.38a2.54,2.54,0,0,1,.07-.73,3.1,3.1,0,0,1,1-1.69,2.88,2.88,0,0,1,2.88-.46,2.79,2.79,0,0,1,1.38,1.12,3.23,3.23,0,0,1,.55,1.81,3.4,3.4,0,0,1-.56,1.72,2.76,2.76,0,0,1-1.38,1.11,2.88,2.88,0,0,1-2.87-.45A3,3,0,0,1,41.31,20.38Zm.58,0A2.37,2.37,0,0,0,42,21a2.1,2.1,0,0,0,.9,1.19,1.84,1.84,0,0,0,1.88,0,2.22,2.22,0,0,0,.69-.74,1.91,1.91,0,0,0,.23-1,2.19,2.19,0,0,0-.24-1,2.29,2.29,0,0,0-.69-.73,1.76,1.76,0,0,0-.95-.28,1.84,1.84,0,0,0-.91.24A2.06,2.06,0,0,0,42,19.8,2.35,2.35,0,0,0,41.89,20.4Z"/><path class="cls-1" d="M50.71,9.33V9H51a3.58,3.58,0,0,1,.88.09A4.14,4.14,0,0,1,54.43,11a4.45,4.45,0,0,1,.66,2.08c0,.72.07,1.41.08,2.16,0,1.48,0,3.06.06,4.64s0,3.16-.07,4.64c0,.75,0,1.42-.08,2.16a4.52,4.52,0,0,1-.66,2.07,4.12,4.12,0,0,1-2.53,1.87,3.22,3.22,0,0,1-1.18.09h0a.3.3,0,0,1-.24-.34.31.31,0,0,1,.28-.24,3.09,3.09,0,0,0,.95-.24,3.44,3.44,0,0,0,1.78-1.68,3.32,3.32,0,0,0,.36-1.58q0-1-.06-2.1c0-1.48-.05-3.06-.07-4.64s0-3.16.06-4.64c0-.73,0-1.44.06-2.11a3.36,3.36,0,0,0-.35-1.57,3.55,3.55,0,0,0-1.78-1.69,4.63,4.63,0,0,0-.69-.2l-.21,0h-.07Z"/><path class="cls-1" d="M64.43,9.33v.29h-.07l-.21,0a4.56,4.56,0,0,0-.68.2,3.51,3.51,0,0,0-1.78,1.69,3.36,3.36,0,0,0-.36,1.57c0,.67,0,1.38.06,2.11,0,1.48,0,3.06.06,4.64s0,3.16-.06,4.64c0,.73,0,1.43-.07,2.1a3.5,3.5,0,0,0,2.14,3.26,3.11,3.11,0,0,0,1,.24.31.31,0,0,1,.28.31.29.29,0,0,1-.24.27h0a3.27,3.27,0,0,1-1.19-.09,4.18,4.18,0,0,1-2.53-1.87,4.52,4.52,0,0,1-.66-2.07c0-.74-.07-1.41-.08-2.16,0-1.48,0-3.06-.06-4.64s0-3.16.06-4.64c0-.75,0-1.44.07-2.16A4.56,4.56,0,0,1,60.7,11a4.19,4.19,0,0,1,2.54-1.87A3.66,3.66,0,0,1,64.13,9h.28Z"/><path class="cls-1" d="M54.91,20.38a2.54,2.54,0,0,1,.07-.73A3.08,3.08,0,0,1,56,18a2.91,2.91,0,0,1,2.89-.46,3.13,3.13,0,0,1,1.93,2.89,3.45,3.45,0,0,1-.56,1.76,2.76,2.76,0,0,1-1.38,1.11A2.87,2.87,0,0,1,56,22.81,3,3,0,0,1,54.91,20.38Zm.58,0a1.87,1.87,0,0,0,.1.57,2.05,2.05,0,0,0,.9,1.19,1.84,1.84,0,0,0,1.88,0,2.2,2.2,0,0,0,.68-.74,1.9,1.9,0,0,0,.24-1,2,2,0,0,0-.93-1.73,1.79,1.79,0,0,0-1-.28,1.91,1.91,0,0,0-.92.24,2.08,2.08,0,0,0-.9,1.18A2.35,2.35,0,0,0,55.49,20.4Z"/><path class="cls-1" d="M64.3,9.33l0-.29h.28a3.66,3.66,0,0,1,.89.09A4.19,4.19,0,0,1,68,11a4.56,4.56,0,0,1,.66,2.08c0,.72.07,1.41.07,2.16,0,1.48,0,3.06.06,4.64s0,3.16-.06,4.64c0,.75,0,1.42-.08,2.16A4.52,4.52,0,0,1,68,28.74a4.15,4.15,0,0,1-2.53,1.87,3.27,3.27,0,0,1-1.19.09h0a.29.29,0,0,1-.24-.34.31.31,0,0,1,.27-.24,3.11,3.11,0,0,0,1-.24A3.44,3.44,0,0,0,67,28.19a3.32,3.32,0,0,0,.36-1.58c0-.67-.05-1.37-.07-2.1,0-1.48,0-3.06-.06-4.64s0-3.16.06-4.64c0-.73,0-1.44.06-2.11A3.25,3.25,0,0,0,67,11.55a3.53,3.53,0,0,0-1.77-1.69,4.63,4.63,0,0,0-.69-.2l-.21,0h-.07Z"/><path class="cls-1" d="M78,9.33v.29H78l-.21,0a4.63,4.63,0,0,0-.69.2,3.58,3.58,0,0,0-1.78,1.69,3.36,3.36,0,0,0-.35,1.57c0,.67,0,1.38.06,2.11,0,1.48,0,3.06.06,4.64S75,23,75,24.51c0,.73,0,1.43-.07,2.1a3.32,3.32,0,0,0,.36,1.58,3.44,3.44,0,0,0,1.78,1.68,3.11,3.11,0,0,0,1,.24.29.29,0,0,1,.27.31.28.28,0,0,1-.24.27h0a3.28,3.28,0,0,1-1.19-.09,4.15,4.15,0,0,1-2.53-1.87,4.52,4.52,0,0,1-.66-2.07c0-.74-.08-1.41-.08-2.16,0-1.48,0-3.06-.06-4.64s0-3.16.06-4.64c0-.75,0-1.44.07-2.16A4.45,4.45,0,0,1,74.3,11a4.17,4.17,0,0,1,2.54-1.87A3.61,3.61,0,0,1,77.73,9H78Z"/><path class="cls-1" d="M68.5,20.38a2.54,2.54,0,0,1,.07-.73A3.1,3.1,0,0,1,69.62,18a2.9,2.9,0,0,1,1.26-.6,2.85,2.85,0,0,1,1.62.14,3.11,3.11,0,0,1,1.93,2.89,3.35,3.35,0,0,1-.55,1.76,2.76,2.76,0,0,1-1.38,1.11,2.87,2.87,0,0,1-2.87-.45A3,3,0,0,1,68.5,20.38Zm.59,0a1.87,1.87,0,0,0,.1.57,2.05,2.05,0,0,0,.9,1.19,1.82,1.82,0,0,0,1.87,0,2.13,2.13,0,0,0,.69-.74,1.89,1.89,0,0,0,.23-1A2,2,0,0,0,72,18.66a1.81,1.81,0,0,0-.95-.28,1.91,1.91,0,0,0-.92.24,2,2,0,0,0-.9,1.18A1.91,1.91,0,0,0,69.09,20.4Z"/><path class="cls-1" d="M77.9,9.33l0-.29h.28a3.7,3.7,0,0,1,.89.09A4.15,4.15,0,0,1,81.62,11a4.45,4.45,0,0,1,.67,2.08c0,.72.06,1.41.07,2.16,0,1.48,0,3.06.06,4.64s0,3.16-.06,4.64c0,.75,0,1.42-.08,2.16a4.52,4.52,0,0,1-.66,2.07,4.18,4.18,0,0,1-2.53,1.87,3.27,3.27,0,0,1-1.19.09h0a.29.29,0,0,1-.23-.34.3.3,0,0,1,.27-.24,3,3,0,0,0,.95-.24,3.42,3.42,0,0,0,1.79-1.68A3.32,3.32,0,0,0,81,26.61q0-1-.06-2.1c0-1.48,0-3.06-.06-4.64s0-3.16.06-4.64c0-.73,0-1.44,0-2.11a3.36,3.36,0,0,0-.35-1.57,3.51,3.51,0,0,0-1.78-1.69,4.56,4.56,0,0,0-.68-.2l-.21,0h-.07Z"/><path class="cls-1" d="M91.62,9.33l0,.29h-.07l-.21,0a4.63,4.63,0,0,0-.69.2,3.55,3.55,0,0,0-1.78,1.69,3.36,3.36,0,0,0-.35,1.57c0,.67,0,1.38.06,2.11,0,1.48,0,3.06.06,4.64s0,3.16-.07,4.64q0,1.09-.06,2.1a3.32,3.32,0,0,0,.36,1.58,3.4,3.4,0,0,0,1.78,1.68,3.09,3.09,0,0,0,1,.24.3.3,0,0,1,.28.31.29.29,0,0,1-.24.27h0a3.22,3.22,0,0,1-1.18-.09,4.17,4.17,0,0,1-2.54-1.87,4.77,4.77,0,0,1-.66-2.07c0-.74-.07-1.41-.07-2.16,0-1.48,0-3.06-.07-4.64s0-3.16.06-4.64c0-.75,0-1.44.08-2.16A4.45,4.45,0,0,1,87.9,11a4.14,4.14,0,0,1,2.54-1.87A3.58,3.58,0,0,1,91.32,9h.29Z"/><path class="cls-1" d="M82.1,20.38a2.54,2.54,0,0,1,.07-.73,3.1,3.1,0,0,1,1-1.69,2.88,2.88,0,0,1,2.88-.46A3.13,3.13,0,0,1,88,20.39a3.35,3.35,0,0,1-.55,1.76,2.83,2.83,0,0,1-1.39,1.11,2.88,2.88,0,0,1-2.87-.45A3,3,0,0,1,82.1,20.38Zm.58,0a2.37,2.37,0,0,0,.1.57,2.1,2.1,0,0,0,.9,1.19,1.84,1.84,0,0,0,1.88,0,2.22,2.22,0,0,0,.69-.74,1.89,1.89,0,0,0,.23-1,2,2,0,0,0-.93-1.73,1.76,1.76,0,0,0-1-.28,1.9,1.9,0,0,0-.91.24,2.06,2.06,0,0,0-.91,1.18A2.35,2.35,0,0,0,82.68,20.4Z"/><path class="cls-1" d="M91.5,9.33V9h.29a3.58,3.58,0,0,1,.88.09A4.14,4.14,0,0,1,95.22,11a4.57,4.57,0,0,1,.67,2.08c0,.72.06,1.41.07,2.16,0,1.48,0,3.06.06,4.64S96,23,96,24.51c0,.75,0,1.42-.07,2.16a4.77,4.77,0,0,1-.66,2.07,4.17,4.17,0,0,1-2.54,1.87,3.22,3.22,0,0,1-1.18.09h0a.3.3,0,0,1-.24-.34.32.32,0,0,1,.28-.24,3.09,3.09,0,0,0,1-.24,3.37,3.37,0,0,0,1.78-1.68,3.32,3.32,0,0,0,.36-1.58q0-1-.06-2.1c0-1.48,0-3.06-.07-4.64s0-3.16.06-4.64c0-.73,0-1.44.06-2.11a3.36,3.36,0,0,0-.35-1.57,3.51,3.51,0,0,0-1.78-1.69,4.63,4.63,0,0,0-.69-.2l-.21,0h-.07Z"/><path class="cls-1" d="M105.22,9.33v.29h-.07l-.21,0a4.93,4.93,0,0,0-.68.2,3.51,3.51,0,0,0-1.78,1.69,3.36,3.36,0,0,0-.35,1.57c0,.67,0,1.38.06,2.11,0,1.48,0,3.06,0,4.64s0,3.16-.06,4.64q0,1.09-.06,2.1a3.32,3.32,0,0,0,.35,1.58,3.42,3.42,0,0,0,1.79,1.68,3,3,0,0,0,1,.24.31.31,0,0,1,.28.31.29.29,0,0,1-.24.27h0a3.22,3.22,0,0,1-1.18-.09,4.17,4.17,0,0,1-2.54-1.87,4.52,4.52,0,0,1-.66-2.07c0-.74-.07-1.41-.08-2.16,0-1.48,0-3.06-.06-4.64s0-3.16.06-4.64c0-.75,0-1.44.07-2.16A4.57,4.57,0,0,1,101.5,11,4.15,4.15,0,0,1,104,9.12a3.7,3.7,0,0,1,.89-.09h.28Z"/><path class="cls-1" d="M95.7,20.38a2.54,2.54,0,0,1,.07-.73,3.1,3.1,0,0,1,1-1.69,2.8,2.8,0,0,1,1.26-.6,2.86,2.86,0,0,1,1.62.14,3.13,3.13,0,0,1,1.93,2.89,3.45,3.45,0,0,1-.56,1.76,2.76,2.76,0,0,1-1.38,1.11,2.88,2.88,0,0,1-2.87-.45A3,3,0,0,1,95.7,20.38Zm.58,0a2.37,2.37,0,0,0,.1.57,2.05,2.05,0,0,0,.9,1.19,1.84,1.84,0,0,0,1.88,0,2.22,2.22,0,0,0,.69-.74,1.89,1.89,0,0,0,.23-1,2,2,0,0,0-.93-1.73,1.76,1.76,0,0,0-1-.28,1.91,1.91,0,0,0-.92.24,2.08,2.08,0,0,0-.9,1.18A2.35,2.35,0,0,0,96.28,20.4Z"/><path class="cls-1" d="M105.1,9.33V9h.29a3.58,3.58,0,0,1,.88.09A4.17,4.17,0,0,1,108.82,11a4.45,4.45,0,0,1,.66,2.08c0,.72.07,1.41.07,2.16,0,1.48,0,3.06.06,4.64s0,3.16-.06,4.64c0,.75,0,1.42-.08,2.16a4.52,4.52,0,0,1-.66,2.07,4.15,4.15,0,0,1-2.53,1.87,3.22,3.22,0,0,1-1.18.09h0a.29.29,0,0,1-.24-.34.31.31,0,0,1,.28-.24,3.09,3.09,0,0,0,1-.24,3.44,3.44,0,0,0,1.78-1.68,3.32,3.32,0,0,0,.36-1.58c0-.67,0-1.37-.07-2.1,0-1.48,0-3.06-.06-4.64s0-3.16.06-4.64c0-.73,0-1.44.06-2.11a3.36,3.36,0,0,0-.35-1.57,3.55,3.55,0,0,0-1.78-1.69,4.63,4.63,0,0,0-.69-.2l-.21,0h-.07Z"/><path class="cls-1" d="M118.82,9.33v.29h-.07l-.21,0a4.63,4.63,0,0,0-.69.2,3.53,3.53,0,0,0-1.77,1.69,3.25,3.25,0,0,0-.36,1.57c0,.67,0,1.38.06,2.11,0,1.48,0,3.06.06,4.64s0,3.16-.06,4.64c0,.73-.05,1.43-.07,2.1a3.32,3.32,0,0,0,.36,1.58,3.44,3.44,0,0,0,1.78,1.68,3.11,3.11,0,0,0,1,.24.29.29,0,0,1,.27.31.27.27,0,0,1-.24.27h0a3.27,3.27,0,0,1-1.19-.09,4.15,4.15,0,0,1-2.53-1.87,4.52,4.52,0,0,1-.66-2.07c0-.74-.07-1.41-.08-2.16,0-1.48,0-3.06-.06-4.64s0-3.16.06-4.64c0-.75,0-1.44.07-2.16a4.56,4.56,0,0,1,.66-2.08,4.19,4.19,0,0,1,2.54-1.87,3.66,3.66,0,0,1,.89-.09h.28Z"/><path class="cls-1" d="M109.29,20.38a2.4,2.4,0,0,1,.08-.73,3.08,3.08,0,0,1,1-1.69,2.91,2.91,0,0,1,2.89-.46,2.84,2.84,0,0,1,1.38,1.12,3.23,3.23,0,0,1,.55,1.81,3.5,3.5,0,0,1-.56,1.72,2.76,2.76,0,0,1-1.38,1.11,2.87,2.87,0,0,1-2.87-.45A3,3,0,0,1,109.29,20.38Zm.59,0a1.87,1.87,0,0,0,.1.57,2.05,2.05,0,0,0,.9,1.19,1.82,1.82,0,0,0,1.87,0,2.13,2.13,0,0,0,.69-.74,1.91,1.91,0,0,0,.24-1,2.19,2.19,0,0,0-.24-1,2.53,2.53,0,0,0-.69-.73,1.81,1.81,0,0,0-1-.28,1.91,1.91,0,0,0-.92.24,2,2,0,0,0-.9,1.18A2.35,2.35,0,0,0,109.88,20.4Z"/></g></g></svg>