<svg xmlns="http://www.w3.org/2000/svg" viewBox="0 0 169.42 252.53"><defs><style>.cls-1{fill:#9c927d;}.cls-2{fill:#b8ac93;}.cls-3{fill:#8e9c96;}.cls-4{fill:#dedfdb;}.cls-5{fill:#aba99e;}.cls-6{fill:#fff3de;}.cls-7{fill:#baa78b;}.cls-8{opacity:0.62;}.cls-9{fill:#fff4e0;}.cls-10{opacity:0.52;}</style></defs><title>Open_window</title><g id="Warstwa_2" data-name="Warstwa 2"><g id="Warstwa_3" data-name="Warstwa 3"><rect class="cls-1" x="20.47" y="207.76" width="127.9" height="7.42"/><rect class="cls-2" x="10.06" y="202.55" width="148.72" height="7.42"/><rect class="cls-3" x="39.46" y="48.63" width="90.56" height="144.68"/><rect class="cls-4" x="79.8" y="54.1" width="9.37" height="138.7"/><rect class="cls-4" x="120.75" y="54.88" width="9.37" height="137.92"/><rect class="cls-4" x="39.34" y="54.88" width="9.37" height="137.92"/><rect class="cls-4" x="39.72" y="183.95" width="90.04" height="9.37"/><rect class="cls-4" x="39.72" y="51.24" width="90.04" height="9.37"/><rect class="cls-4" x="44.41" y="145.17" width="81.97" height="3.12"/><path class="cls-5" d="M131.19,194.49H38.29v-147h92.9Zm-90.56-2.35h88.22V49.8H40.63Z"/><rect class="cls-6" x="32.59" y="35.49" width="103.83" height="17.17"/><path class="cls-7" d="M137.2,53.44H31.81V34.71H137.2ZM33.37,51.88H135.64V36.27H33.37Z"/><polygon class="cls-6" points="147.68 194.88 141.43 194.88 141.43 60.6 147.48 60.6 147.48 25.73 23.3 25.73 23.3 60.6 29.35 60.6 29.35 194.88 23.1 194.88 23.1 66.85 17.05 66.85 17.05 19.49 153.73 19.49 153.73 66.85 147.68 66.85 147.68 194.88"/><polygon class="cls-7" points="143.34 195.13 141.46 195.13 141.46 59.14 147.15 59.14 147.15 26.67 23.64 26.67 23.64 59.14 29.32 59.14 29.32 195.13 27.44 195.13 27.44 61.02 21.76 61.02 21.76 24.8 149.02 24.8 149.02 61.02 143.34 61.02 143.34 195.13"/><polygon class="cls-7" points="149.38 195.13 147.5 195.13 147.5 66.95 154.19 66.95 154.19 18.08 16.59 18.08 16.59 66.95 23.28 66.95 23.28 195.13 21.41 195.13 21.41 68.82 14.72 68.82 14.72 16.21 156.06 16.21 156.06 68.82 149.38 68.82 149.38 195.13"/><g class="cls-8"><rect class="cls-2" x="1.85" y="5.33" width="165.5" height="5.5"/></g><rect class="cls-2" x="1.67" y="193.18" width="165.5" height="7.42"/><rect class="cls-9" x="1.67" y="200.82" width="165.5" height="4.69"/><rect class="cls-6" x="1.85" width="165.5" height="4.94"/><rect class="cls-4" x="42.72" y="103.41" width="81.97" height="3.12"/><rect class="cls-6" x="35.61" y="220.49" width="98.83" height="22.51"/><g class="cls-10"><rect class="cls-1" x="78.29" y="227.66" width="13.48" height="8.17"/></g><rect class="cls-6" x="147.37" y="220.51" width="17.41" height="7.07"/><path class="cls-7" d="M165.71,228.52H146.43v-9h19.28Zm-17.4-1.87h15.53v-5.21H148.31Z"/><path class="cls-7" d="M135.38,243.94H34.67V219.56H135.38Zm-98.83-1.88h97V221.43h-97Z"/><path class="cls-7" d="M148.31,227.94l-.52,15.85a.41.41,0,0,1-.43.41.43.43,0,0,1-.42-.41l-.51-15.85a.94.94,0,1,1,1.88-.06Z"/><path class="cls-7" d="M154.1,227.94l-.51,15.85a.42.42,0,0,1-.44.41.43.43,0,0,1-.41-.41l-.51-15.85a.94.94,0,1,1,1.87-.06Z"/><path class="cls-7" d="M159.9,227.94l-.51,15.85a.43.43,0,0,1-.85,0L158,227.94a.94.94,0,1,1,1.87-.06Z"/><path class="cls-7" d="M165.7,227.94l-.51,15.85a.42.42,0,0,1-.44.41.41.41,0,0,1-.41-.41l-.52-15.85a.94.94,0,1,1,1.88-.06Z"/><rect class="cls-6" x="7.05" y="220.51" width="17.41" height="7.07"/><path class="cls-7" d="M25.39,228.52H6.11v-9H25.39ZM8,226.65H23.51v-5.21H8Z"/><path class="cls-7" d="M8,227.94l-.51,15.85a.42.42,0,0,1-.44.41.43.43,0,0,1-.41-.41l-.51-15.85A.94.94,0,1,1,8,227.88Z"/><path class="cls-7" d="M13.78,227.94l-.51,15.85a.42.42,0,0,1-.44.41.42.42,0,0,1-.41-.41l-.51-15.85a.94.94,0,1,1,1.87-.06Z"/><path class="cls-7" d="M19.58,227.94l-.51,15.85a.42.42,0,0,1-.44.41.41.41,0,0,1-.41-.41l-.52-15.85a.94.94,0,0,1,1.88-.06Z"/><path class="cls-7" d="M25.37,227.94l-.51,15.85a.41.41,0,0,1-.44.41.43.43,0,0,1-.41-.41l-.51-15.85a.94.94,0,1,1,1.87-.06A.06.06,0,0,1,25.37,227.94Z"/><path class="cls-7" d="M1,217.77l.3,33.83L.66,251l84.05-.28,84.05.28-.66.65.31-34.87a.34.34,0,0,1,.35-.34.35.35,0,0,1,.35.34l.31,34.87a.66.66,0,0,1-.65.66h0l-84,.27-84-.27a.66.66,0,0,1-.66-.65H0l.31-33.83a.35.35,0,0,1,.35-.34A.35.35,0,0,1,1,217.77Z"/></g></g></svg>