<?xml version="1.0" encoding="utf-8"?>
<!-- Generator: Adobe Illustrator 22.0.1, SVG Export Plug-In . SVG Version: 6.00 Build 0)  -->
<svg version="1.1" id="Warstwa_1" xmlns="http://www.w3.org/2000/svg" xmlns:xlink="http://www.w3.org/1999/xlink" x="0px" y="0px"
	 viewBox="0 0 169.4 252.5" style="enable-background:new 0 0 169.4 252.5;" xml:space="preserve">
<style type="text/css">
	.st0{fill:#9C927D;}
	.st1{fill:#B8AC93;}
	.st2{fill:#8E9C96;}
	.st3{fill:#DEDFDB;}
	.st4{fill:#ABA99E;}
	.st5{fill:#FFF3DE;}
	.st6{fill:#BAA78B;}
	.st7{fill:#FFF4E0;}
	.st8{opacity:0.52;}
</style>
<title>Open_window</title>
<g id="Warstwa_2_1_">
	<g id="Warstwa_3">
		<rect x="20.5" y="207.8" class="st0" width="127.9" height="7.4"/>
		<rect x="10.1" y="202.6" class="st1" width="148.7" height="7.4"/>
		<rect x="39.5" y="48.6" class="st2" width="90.6" height="144.7"/>
		<rect x="79.8" y="54.1" class="st3" width="9.4" height="138.7"/>
		<rect x="120.8" y="54.9" class="st3" width="9.4" height="137.9"/>
		<rect x="39.3" y="54.9" class="st3" width="9.4" height="137.9"/>
		<rect x="39.7" y="183.9" class="st3" width="90" height="9.4"/>
		<rect x="39.7" y="51.2" class="st3" width="90" height="9.4"/>
		<rect x="44.4" y="145.2" class="st3" width="82" height="3.1"/>
		<path class="st4" d="M131.2,194.5H38.3v-147h92.9V194.5z M40.6,192.1h88.2V49.8H40.6L40.6,192.1z"/>
		<rect x="32.6" y="35.5" class="st5" width="103.8" height="17.2"/>
		<path class="st6" d="M137.2,53.4H31.8V34.7h105.4V53.4z M33.4,51.9h102.3V36.3H33.4V51.9z"/>
		<polygon class="st5" points="147.7,194.9 141.4,194.9 141.4,60.6 147.5,60.6 147.5,25.7 23.3,25.7 23.3,60.6 29.4,60.6 
			29.4,194.9 23.1,194.9 23.1,66.8 17,66.8 17,19.5 153.7,19.5 153.7,66.8 147.7,66.8 		"/>
		<polygon class="st6" points="143.3,195.1 141.5,195.1 141.5,59.1 147.1,59.1 147.1,26.7 23.6,26.7 23.6,59.1 29.3,59.1 
			29.3,195.1 27.4,195.1 27.4,61 21.8,61 21.8,24.8 149,24.8 149,61 143.3,61 		"/>
		<polygon class="st6" points="149.4,195.1 147.5,195.1 147.5,66.9 154.2,66.9 154.2,18.1 16.6,18.1 16.6,66.9 23.3,66.9 
			23.3,195.1 21.4,195.1 21.4,68.8 14.7,68.8 14.7,16.2 156.1,16.2 156.1,68.8 149.4,68.8 		"/>
		<rect x="1.7" y="193.2" class="st1" width="165.5" height="7.4"/>
		<rect x="1.7" y="200.8" class="st7" width="165.5" height="4.7"/>
		<rect x="42.7" y="103.4" class="st3" width="82" height="3.1"/>
		<rect x="35.6" y="220.5" class="st5" width="98.8" height="22.5"/>
		<g class="st8">
			<rect x="78.3" y="227.7" class="st0" width="13.5" height="8.2"/>
		</g>
		<rect x="147.4" y="220.5" class="st5" width="17.4" height="7.1"/>
		<path class="st6" d="M165.7,228.5h-19.3v-9h19.3L165.7,228.5z M148.3,226.7h15.5v-5.2h-15.5L148.3,226.7z"/>
		<path class="st6" d="M135.4,243.9H34.7v-24.4h100.7V243.9z M36.6,242.1h97v-20.6h-97V242.1z"/>
		<path class="st6" d="M148.3,227.9l-0.5,15.9c0,0.2-0.2,0.4-0.4,0.4c0,0,0,0,0,0c-0.2,0-0.4-0.2-0.4-0.4l-0.5-15.9
			c0-0.5,0.4-1,0.9-1S148.3,227.4,148.3,227.9L148.3,227.9z"/>
		<path class="st6" d="M154.1,227.9l-0.5,15.9c0,0.2-0.2,0.4-0.4,0.4c0,0,0,0,0,0c-0.2,0-0.4-0.2-0.4-0.4l-0.5-15.9
			c-0.1-0.5,0.3-1,0.8-1.1s1,0.3,1.1,0.8C154.1,227.8,154.1,227.8,154.1,227.9L154.1,227.9z"/>
		<path class="st6" d="M159.9,227.9l-0.5,15.9c0,0.2-0.3,0.4-0.5,0.4c-0.2,0-0.3-0.2-0.4-0.4l-0.5-15.9c-0.1-0.5,0.3-1,0.8-1.1
			s1,0.3,1.1,0.8C159.9,227.8,159.9,227.8,159.9,227.9L159.9,227.9z"/>
		<path class="st6" d="M165.7,227.9l-0.5,15.9c0,0.2-0.2,0.4-0.4,0.4c0,0,0,0,0,0c-0.2,0-0.4-0.2-0.4-0.4l0,0l-0.5-15.9
			c0-0.5,0.4-1,0.9-1S165.7,227.4,165.7,227.9L165.7,227.9z"/>
		<rect x="7.1" y="220.5" class="st5" width="17.4" height="7.1"/>
		<path class="st6" d="M25.4,228.5H6.1v-9h19.3V228.5z M8,226.6h15.5v-5.2H8V226.6z"/>
		<path class="st6" d="M8,227.9l-0.5,15.9c0,0.2-0.2,0.4-0.4,0.4c0,0,0,0,0,0c-0.2,0-0.4-0.2-0.4-0.4l-0.5-15.9
			c-0.1-0.5,0.3-1,0.8-1.1s1,0.3,1.1,0.8C8,227.8,8,227.8,8,227.9L8,227.9z"/>
		<path class="st6" d="M13.8,227.9l-0.5,15.9c0,0.2-0.2,0.4-0.4,0.4c0,0,0,0,0,0c-0.2,0-0.4-0.2-0.4-0.4l-0.5-15.9
			c-0.1-0.5,0.3-1,0.8-1.1c0.5-0.1,1,0.3,1.1,0.8C13.8,227.8,13.8,227.8,13.8,227.9L13.8,227.9z"/>
		<path class="st6" d="M19.6,227.9l-0.5,15.9c0,0.2-0.2,0.4-0.4,0.4c0,0,0,0,0,0c-0.2,0-0.4-0.2-0.4-0.4l0,0l-0.5-15.9
			c0-0.5,0.4-1,0.9-1C19.1,227,19.6,227.4,19.6,227.9L19.6,227.9z"/>
		<path class="st6" d="M25.4,227.9l-0.5,15.9c0,0.2-0.2,0.4-0.4,0.4c0,0,0,0,0,0c-0.2,0-0.4-0.2-0.4-0.4l-0.5-15.9
			c-0.1-0.5,0.3-1,0.8-1.1c0.5-0.1,1,0.3,1.1,0.8C25.4,227.8,25.4,227.8,25.4,227.9C25.4,227.9,25.4,227.9,25.4,227.9z"/>
		<path class="st6" d="M1,217.8l0.3,33.8L0.7,251l84.1-0.3l84.1,0.3l-0.7,0.6l0.3-34.9c0-0.2,0.2-0.3,0.3-0.3c0,0,0,0,0,0
			c0.2,0,0.3,0.2,0.4,0.3l0.3,34.9c0,0.4-0.3,0.7-0.6,0.7l0,0l-84,0.3l-84-0.3c-0.4,0-0.7-0.3-0.7-0.6H0l0.3-33.8
			c0-0.2,0.2-0.3,0.3-0.3C0.8,217.5,1,217.6,1,217.8z"/>
	</g>
</g>
</svg>
